<?xml version="1.0" encoding="UTF-8"?>
<svg id="Layer_2" data-name="Layer 2" xmlns="http://www.w3.org/2000/svg" viewBox="0 0 1286.94 553.77">
  <defs>
    <style>
      .cls-1 {
        fill: none;
        stroke: #51a0d5;
        stroke-linecap: round;
        stroke-width: 8px;
      }
    </style>
  </defs>
  <g id="Layer_1-2" data-name="Layer 1">
    <path class="cls-1" d="M4,549.77c80.04-38.43,161.8-78.53,226.13-141.14,5.69-5.53,11.2-11.25,16.48-17.17,22.64-25.39,41.2-54.95,50.59-87.65,4.13-14.36,6.46-29.39,5.17-44.28-1.29-14.89-6.38-29.66-15.89-41.2-15.64-18.99-41.93-26.33-65.56-20.79-35.35,8.29-56.66,49.01-59.43,82.51-3.91,47.2,20.21,98.9,58.28,126.85,65.16,47.86,154.99,28.91,220.8-7.29,88.22-48.53,166.15-120.02,268.43-137.91,66.59-11.65,134.65-5.62,201.83-8.58,47.01-2.07,91.54-14.69,134.84-33.2,100.41-42.93,185.48-119.64,237.27-215.92"/>
  </g>
</svg>